<svg width="32" height="32" viewBox="0 0 32 32" fill="none" xmlns="http://www.w3.org/2000/svg">
<g filter="url(#filter0_d_1_1580)">
<path fill-rule="evenodd" clip-rule="evenodd" d="M10.5059 10.0153C10.1777 10.122 10.0025 10.3593 10.0017 10.6986C10.0008 11.0136 9.85341 10.8487 12.5461 13.5442L15.0018 16.0026L12.5461 18.4609C9.85341 21.1564 10.0008 20.9916 10.0017 21.3066C10.0027 21.728 10.2721 21.9971 10.6938 21.9983C11.0089 21.9992 10.8439 22.1466 13.5406 19.455L16 17.0003L18.4594 19.455C21.1561 22.1466 20.9911 21.9992 21.3062 21.9983C21.7279 21.9971 21.9973 21.728 21.9983 21.3066C21.9992 20.9916 22.1466 21.1564 19.4539 18.4609L16.9982 16.0026L19.4539 13.5442C22.1466 10.8487 21.9992 11.0136 21.9983 10.6986C21.9971 10.2771 21.7278 10.0079 21.3062 10.0068C20.9911 10.006 21.156 9.85861 18.4594 12.5501L16 15.0048L13.5406 12.5501C11.8374 10.8502 11.0523 10.082 10.9873 10.0518C10.8853 10.0045 10.6047 9.98323 10.5059 10.0153Z" fill="#FFFDF9"/>
</g>
<defs>
<filter id="filter0_d_1_1580" x="-4" y="0" width="40" height="40" filterUnits="userSpaceOnUse" color-interpolation-filters="sRGB">
<feFlood flood-opacity="0" result="BackgroundImageFix"/>
<feColorMatrix in="SourceAlpha" type="matrix" values="0 0 0 0 0 0 0 0 0 0 0 0 0 0 0 0 0 0 127 0" result="hardAlpha"/>
<feOffset dy="4"/>
<feGaussianBlur stdDeviation="2"/>
<feComposite in2="hardAlpha" operator="out"/>
<feColorMatrix type="matrix" values="0 0 0 0 0 0 0 0 0 0 0 0 0 0 0 0 0 0 0.25 0"/>
<feBlend mode="normal" in2="BackgroundImageFix" result="effect1_dropShadow_1_1580"/>
<feBlend mode="normal" in="SourceGraphic" in2="effect1_dropShadow_1_1580" result="shape"/>
</filter>
</defs>
</svg>
