<svg width="25" height="21" viewBox="0 0 25 21" fill="none" xmlns="http://www.w3.org/2000/svg">
<path d="M11.6235 19.6321C12.201 20.1227 13.0489 20.1227 13.6264 19.6321L20.133 14.1052C21.2302 13.1732 20.5711 11.3794 19.1316 11.3794H6.11835C4.67881 11.3794 4.01976 13.1732 5.11691 14.1052L11.6235 19.6321Z" fill="#00D42F"/>
<rect width="16.2155" height="12.8965" transform="matrix(1 0 0 -1 4.51599 12.8965)" fill="#00D42F"/>
<g clip-path="url(#clip0_2052_5027)">
<path d="M11.0359 11.1983L8.96478 9.12714C8.732 8.89436 8.35597 8.89436 8.12319 9.12714C7.89041 9.35992 7.89041 9.73595 8.12319 9.96873L10.6181 12.4637C10.8509 12.6964 11.2269 12.6964 11.4597 12.4637L17.7746 6.14874C18.0074 5.91596 18.0074 5.53993 17.7746 5.30715C17.5418 5.07437 17.1658 5.07437 16.933 5.30715L11.0359 11.1983Z" fill="white"/>
</g>
<defs>
<clipPath id="clip0_2052_5027">
<rect width="14.3249" height="14.3249" fill="white" transform="translate(5.66406 1.54688)"/>
</clipPath>
</defs>
</svg>
