<svg width="18" height="19" viewBox="0 0 18 19" fill="none" xmlns="http://www.w3.org/2000/svg">
<path d="M0 6V0H2V3.35C2.83333 2.31667 3.85433 1.5 5.063 0.9C6.27167 0.3 7.584 0 9 0C10.9667 0 12.721 0.558334 14.263 1.675C15.805 2.79167 16.884 4.23333 17.5 6H15.325C14.7583 4.8 13.9167 3.83333 12.8 3.1C11.6833 2.36667 10.4167 2 9 2C8.05 2 7.154 2.175 6.312 2.525C5.47 2.875 4.73267 3.36667 4.1 4H6V6H0ZM3 15H15L11.25 10L8.25 14L6 11L3 15ZM2 19C1.45 19 0.979333 18.8043 0.588 18.413C0.196667 18.0217 0.000666667 17.5507 0 17V9H2V17H16V9H18V17C18 17.55 17.8043 18.021 17.413 18.413C17.0217 18.805 16.5507 19.0007 16 19H2Z" fill="#FFFDF9"/>
</svg>
