<svg width="39" height="39" viewBox="0 0 39 39" fill="none" xmlns="http://www.w3.org/2000/svg">
<path d="M9.99276 6.20734C8.23192 6.20734 6.54321 6.90683 5.29811 8.15193C4.05301 9.39703 3.35352 11.0857 3.35352 12.8466V29.0758C3.35352 32.7459 6.32273 35.7151 9.99276 35.7151H26.222C27.9829 35.7151 29.6716 35.0156 30.9167 33.7705C32.1618 32.5254 32.8613 30.8367 32.8613 29.0758V12.8466C32.8613 9.17655 29.892 6.20734 26.222 6.20734H9.99276ZM27.7896 8.97369C28.401 8.97369 28.9874 9.21657 29.4197 9.64889C29.852 10.0812 30.0949 10.6676 30.0949 11.279C30.0949 11.8904 29.852 12.4767 29.4197 12.9091C28.9874 13.3414 28.401 13.5843 27.7896 13.5843C27.1782 13.5843 26.5919 13.3414 26.1595 12.9091C25.7272 12.4767 25.4843 11.8904 25.4843 11.279C25.4843 10.6676 25.7272 10.0812 26.1595 9.64889C26.5919 9.21657 27.1782 8.97369 27.7896 8.97369ZM18.1074 11.74C20.553 11.74 22.8984 12.7116 24.6277 14.4409C26.357 16.1702 27.3286 18.5156 27.3286 20.9612C27.3286 23.4068 26.357 25.7523 24.6277 27.4816C22.8984 29.2109 20.553 30.1824 18.1074 30.1824C15.6618 30.1824 13.3163 29.2109 11.587 27.4816C9.85773 25.7523 8.88622 23.4068 8.88622 20.9612C8.88622 18.5156 9.85773 16.1702 11.587 14.4409C13.3163 12.7116 15.6618 11.74 18.1074 11.74ZM18.1074 15.4285C16.64 15.4285 15.2328 16.0114 14.1952 17.049C13.1576 18.0866 12.5747 19.4938 12.5747 20.9612C12.5747 22.4286 13.1576 23.8358 14.1952 24.8734C15.2328 25.911 16.64 26.4939 18.1074 26.4939C19.5748 26.4939 20.982 25.911 22.0196 24.8734C23.0572 23.8358 23.6401 22.4286 23.6401 20.9612C23.6401 19.4938 23.0572 18.0866 22.0196 17.049C20.982 16.0114 19.5748 15.4285 18.1074 15.4285Z" fill="#FFFDF9"/>
<circle cx="36.001" cy="3" r="3" fill="#FF3E3E"/>
</svg>
