<svg width="37" height="36" viewBox="0 0 37 36" fill="none" xmlns="http://www.w3.org/2000/svg">
<path d="M9.99276 3.20734C8.23192 3.20734 6.54321 3.90683 5.29811 5.15193C4.05301 6.39703 3.35352 8.08574 3.35352 9.84658V26.0758C3.35352 29.7459 6.32273 32.7151 9.99276 32.7151H26.222C27.9829 32.7151 29.6716 32.0156 30.9167 30.7705C32.1618 29.5254 32.8613 27.8367 32.8613 26.0758V9.84658C32.8613 6.17655 29.892 3.20734 26.222 3.20734H9.99276ZM27.7896 5.97369C28.401 5.97369 28.9874 6.21657 29.4197 6.64889C29.852 7.08122 30.0949 7.66758 30.0949 8.27898C30.0949 8.89038 29.852 9.47674 29.4197 9.90907C28.9874 10.3414 28.401 10.5843 27.7896 10.5843C27.1782 10.5843 26.5919 10.3414 26.1595 9.90907C25.7272 9.47674 25.4843 8.89038 25.4843 8.27898C25.4843 7.66758 25.7272 7.08122 26.1595 6.64889C26.5919 6.21657 27.1782 5.97369 27.7896 5.97369ZM18.1074 8.74004C20.553 8.74004 22.8984 9.71155 24.6277 11.4409C26.357 13.1702 27.3286 15.5156 27.3286 17.9612C27.3286 20.4068 26.357 22.7523 24.6277 24.4816C22.8984 26.2109 20.553 27.1824 18.1074 27.1824C15.6618 27.1824 13.3163 26.2109 11.587 24.4816C9.85773 22.7523 8.88622 20.4068 8.88622 17.9612C8.88622 15.5156 9.85773 13.1702 11.587 11.4409C13.3163 9.71155 15.6618 8.74004 18.1074 8.74004ZM18.1074 12.4285C16.64 12.4285 15.2328 13.0114 14.1952 14.049C13.1576 15.0866 12.5747 16.4938 12.5747 17.9612C12.5747 19.4286 13.1576 20.8358 14.1952 21.8734C15.2328 22.911 16.64 23.4939 18.1074 23.4939C19.5748 23.4939 20.982 22.911 22.0196 21.8734C23.0572 20.8358 23.6401 19.4286 23.6401 17.9612C23.6401 16.4938 23.0572 15.0866 22.0196 14.049C20.982 13.0114 19.5748 12.4285 18.1074 12.4285Z" fill="#FFFDF9"/>
</svg>
