<svg width="21" height="18" viewBox="0 0 21 18" fill="none" xmlns="http://www.w3.org/2000/svg">
<path d="M10.5 14.5C11.75 14.5 12.8127 14.0627 13.688 13.188C14.5633 12.3133 15.0007 11.2507 15 10C15 8.75 14.5627 7.68767 13.688 6.813C12.8133 5.93833 11.7507 5.50067 10.5 5.5C9.25 5.5 8.18767 5.93767 7.313 6.813C6.43833 7.68833 6.00067 8.75067 6 10C6 11.25 6.43767 12.3127 7.313 13.188C8.18833 14.0633 9.25067 14.5007 10.5 14.5ZM10.5 12.5C9.8 12.5 9.20833 12.2583 8.725 11.775C8.24167 11.2917 8 10.7 8 10C8 9.3 8.24167 8.70833 8.725 8.225C9.20833 7.74167 9.8 7.5 10.5 7.5C11.2 7.5 11.7917 7.74167 12.275 8.225C12.7583 8.70833 13 9.3 13 10C13 10.7 12.7583 11.2917 12.275 11.775C11.7917 12.2583 11.2 12.5 10.5 12.5ZM2.5 18C1.95 18 1.47933 17.8043 1.088 17.413C0.696667 17.0217 0.500667 16.5507 0.5 16V4C0.5 3.45 0.696 2.97933 1.088 2.588C1.48 2.19667 1.95067 2.00067 2.5 2H5.65L7.5 0H13.5L15.35 2H18.5C19.05 2 19.521 2.196 19.913 2.588C20.305 2.98 20.5007 3.45067 20.5 4V16C20.5 16.55 20.3043 17.021 19.913 17.413C19.5217 17.805 19.0507 18.0007 18.5 18H2.5ZM2.5 16H18.5V4H14.45L12.625 2H8.375L6.55 4H2.5V16Z" fill="#171722"/>
</svg>
