<svg width="23" height="23" viewBox="0 0 23 23" fill="none" xmlns="http://www.w3.org/2000/svg">
<path d="M13.6146 6.91667C13.6146 7.15978 13.518 7.39294 13.3461 7.56485C13.1742 7.73676 12.941 7.83333 12.6979 7.83333C11.4823 7.83333 10.3166 8.31622 9.45701 9.17576C8.59747 10.0353 8.11458 11.2011 8.11458 12.4167C8.11458 12.6598 8.01801 12.8929 7.8461 13.0648C7.67419 13.2368 7.44103 13.3333 7.19792 13.3333C6.9548 13.3333 6.72164 13.2368 6.54974 13.0648C6.37783 12.8929 6.28125 12.6598 6.28125 12.4167C6.28125 11.2011 5.79836 10.0353 4.93882 9.17576C4.07928 8.31622 2.91349 7.83333 1.69792 7.83333C1.4548 7.83333 1.22164 7.73676 1.04974 7.56485C0.877827 7.39294 0.78125 7.15978 0.78125 6.91667C0.78125 6.67355 0.877827 6.44039 1.04974 6.26849C1.22164 6.09658 1.4548 6 1.69792 6C2.91349 6 4.07928 5.51711 4.93882 4.65757C5.79836 3.79803 6.28125 2.63224 6.28125 1.41667C6.28125 1.17355 6.37783 0.940394 6.54974 0.768486C6.72164 0.596577 6.9548 0.5 7.19792 0.5C7.44103 0.5 7.67419 0.596577 7.8461 0.768486C8.01801 0.940394 8.11458 1.17355 8.11458 1.41667C8.11458 2.63224 8.59747 3.79803 9.45701 4.65757C10.3166 5.51711 11.4823 6 12.6979 6C12.941 6 13.1742 6.09658 13.3461 6.26849C13.518 6.44039 13.6146 6.67355 13.6146 6.91667Z" fill="#171722"/>
<path d="M14.5316 18.8334C14.5316 19.0765 14.435 19.3096 14.2631 19.4815C14.0912 19.6534 13.858 19.75 13.6149 19.75C13.1287 19.75 12.6624 19.9432 12.3185 20.287C11.9747 20.6308 11.7816 21.0971 11.7816 21.5834C11.7816 21.8265 11.685 22.0596 11.5131 22.2315C11.3412 22.4034 11.108 22.5 10.8649 22.5C10.6218 22.5 10.3886 22.4034 10.2167 22.2315C10.0448 22.0596 9.94824 21.8265 9.94824 21.5834C9.94824 21.0971 9.75509 20.6308 9.41127 20.287C9.06745 19.9432 8.60114 19.75 8.11491 19.75C7.87179 19.75 7.63864 19.6534 7.46673 19.4815C7.29482 19.3096 7.19824 19.0765 7.19824 18.8334C7.19824 18.5902 7.29482 18.3571 7.46673 18.1852C7.63864 18.0133 7.87179 17.9167 8.11491 17.9167C8.60114 17.9167 9.06745 17.7235 9.41127 17.3797C9.75509 17.0359 9.94824 16.5696 9.94824 16.0834C9.94824 15.8402 10.0448 15.6071 10.2167 15.4352C10.3886 15.2633 10.6218 15.1667 10.8649 15.1667C11.108 15.1667 11.3412 15.2633 11.5131 15.4352C11.685 15.6071 11.7816 15.8402 11.7816 16.0834C11.7816 16.5696 11.9747 17.0359 12.3185 17.3797C12.6624 17.7235 13.1287 17.9167 13.6149 17.9167C13.858 17.9167 14.0912 18.0133 14.2631 18.1852C14.435 18.3571 14.5316 18.5902 14.5316 18.8334Z" fill="#171722"/>
<path d="M22.7812 12.4167C22.7812 12.6598 22.6847 12.893 22.5128 13.0649C22.3409 13.2368 22.1077 13.3334 21.8646 13.3334C20.8921 13.3334 19.9595 13.7197 19.2719 14.4073C18.5842 15.0949 18.1979 16.0276 18.1979 17C18.1979 17.2431 18.1013 17.4763 17.9294 17.6482C17.7575 17.8201 17.5244 17.9167 17.2812 17.9167C17.0381 17.9167 16.805 17.8201 16.6331 17.6482C16.4612 17.4763 16.3646 17.2431 16.3646 17C16.3646 16.0276 15.9783 15.0949 15.2906 14.4073C14.603 13.7197 13.6704 13.3334 12.6979 13.3334C12.4548 13.3334 12.2216 13.2368 12.0497 13.0649C11.8778 12.893 11.7812 12.6598 11.7812 12.4167C11.7812 12.1736 11.8778 11.9404 12.0497 11.7685C12.2216 11.5966 12.4548 11.5 12.6979 11.5C13.6704 11.5 14.603 11.1137 15.2906 10.4261C15.9783 9.73845 16.3646 8.80581 16.3646 7.83335C16.3646 7.59024 16.4612 7.35708 16.6331 7.18517C16.805 7.01326 17.0381 6.91669 17.2812 6.91669C17.5244 6.91669 17.7575 7.01326 17.9294 7.18517C18.1013 7.35708 18.1979 7.59024 18.1979 7.83335C18.1979 8.80581 18.5842 9.73845 19.2719 10.4261C19.9595 11.1137 20.8921 11.5 21.8646 11.5C22.1077 11.5 22.3409 11.5966 22.5128 11.7685C22.6847 11.9404 22.7812 12.1736 22.7812 12.4167Z" fill="#171722"/>
</svg>
