<svg width="39" height="39" viewBox="0 0 39 39" fill="none" xmlns="http://www.w3.org/2000/svg">
<path d="M24.7016 11.8012C23.7 10.6445 23.148 9.15909 23.1485 7.6214H18.621V26.0007C18.5861 26.9953 18.171 27.9374 17.4632 28.6286C16.7553 29.3198 15.81 29.7061 14.8262 29.7062C12.7456 29.7062 11.0167 27.9869 11.0167 25.8525C11.0167 23.3031 13.4489 21.3911 15.9544 22.1766V17.4929C10.8995 16.8111 6.47461 20.7834 6.47461 25.8525C6.47461 30.7883 10.5185 34.3011 14.8115 34.3011C19.4122 34.3011 23.1485 30.5215 23.1485 25.8525V16.5294C24.9843 17.8632 27.1885 18.5788 29.4488 18.5749V13.9949C29.4488 13.9949 26.6942 14.1283 24.7016 11.8012Z" fill="#FFFDF9"/>
<circle cx="35.5703" cy="3" r="3" fill="#FF3E3E"/>
</svg>
