<svg width="24" height="28" viewBox="0 0 24 28" fill="none" xmlns="http://www.w3.org/2000/svg">
<path d="M19.1342 4.80122C18.1326 3.64454 17.5807 2.15909 17.5811 0.621399H13.0536V19.0007C13.0187 19.9953 12.6036 20.9374 11.8958 21.6286C11.188 22.3198 10.2426 22.7061 9.25881 22.7062C7.17824 22.7062 5.44931 20.9869 5.44931 18.8525C5.44931 16.3031 7.88153 14.3911 10.387 15.1766V10.4929C5.3321 9.81107 0.907227 13.7834 0.907227 18.8525C0.907227 23.7883 4.95115 27.3011 9.24415 27.3011C13.8448 27.3011 17.5811 23.5215 17.5811 18.8525V9.52945C19.417 10.8632 21.6211 11.5788 23.8814 11.5749V6.99488C23.8814 6.99488 21.1268 7.12828 19.1342 4.80122Z" fill="#FFFDF9"/>
</svg>
